<?xml version="1.0" standalone="no"?>
<!DOCTYPE svg PUBLIC "-//W3C//DTD SVG 20010904//EN"
 "http://www.w3.org/TR/2001/REC-SVG-20010904/DTD/svg10.dtd">
<svg version="1.0" xmlns="http://www.w3.org/2000/svg"
 width="600" height="600" viewBox="0 0 475.000000 552.000000"
 preserveAspectRatio="xMidYMid meet">

<g transform="translate(0.000000,552.000000) scale(0.100000,-0.100000)"
fill="#000000" stroke="none">
<path d="M2321 4513 c-40 -20 -106 -86 -128 -128 -9 -16 -18 -57 -21 -92 l-5
-63 -41 0 c-135 -1 -222 -131 -168 -251 64 -141 152 -343 152 -348 0 -4 -27
-13 -60 -19 -32 -7 -101 -33 -151 -59 -105 -52 -221 -154 -279 -246 -20 -31
-47 -61 -63 -68 -60 -26 -105 -68 -131 -123 -30 -62 -33 -108 -11 -160 21 -50
4 -45 -20 7 -28 59 -73 82 -155 81 -87 0 -144 -18 -188 -59 -33 -30 -37 -40
-42 -96 -5 -59 -7 -63 -34 -70 -17 -5 -31 -7 -33 -6 -1 2 -5 70 -9 152 -7 165
-16 194 -67 225 -43 26 -221 29 -273 4 -47 -23 -74 -70 -74 -132 l0 -50 -48
-7 c-55 -7 -65 -12 -79 -40 -11 -21 0 -666 12 -696 9 -23 49 -39 95 -39 l40 0
0 -45 c0 -62 22 -111 62 -135 27 -17 50 -20 136 -20 119 0 162 14 194 64 18
29 19 46 15 248 l-3 218 50 14 c91 26 138 37 140 34 1 -2 11 -21 21 -42 31
-62 132 -159 202 -195 70 -35 167 -61 228 -61 l40 0 28 -92 c53 -173 138 -371
212 -492 44 -73 53 -96 37 -96 -13 0 -78 -90 -109 -150 -26 -51 -28 -63 -28
-171 0 -107 -2 -117 -20 -125 -11 -5 -24 -21 -29 -36 -8 -22 -6 -32 10 -49 18
-20 24 -21 174 -14 122 6 163 11 192 26 44 23 68 63 68 116 0 54 17 107 40
128 18 17 21 17 62 0 107 -43 239 -39 363 10 64 26 70 27 94 12 55 -33 83 -81
91 -155 5 -46 15 -81 28 -100 35 -49 66 -56 224 -49 122 5 144 9 161 26 25 24
16 67 -16 82 -21 9 -22 16 -22 127 0 110 -2 121 -30 177 -18 38 -58 89 -107
138 l-77 79 29 51 c64 115 153 350 202 532 l14 50 60 7 c159 17 309 110 381
237 15 25 28 48 29 49 1 2 48 -6 105 -17 56 -12 104 -21 107 -21 3 0 2 -91 -1
-203 -8 -228 -3 -251 62 -294 30 -20 46 -23 141 -23 95 0 111 3 141 23 42 28
59 60 59 114 0 58 7 71 35 65 32 -6 88 14 102 37 8 13 12 120 14 360 3 388 6
370 -79 379 l-49 4 -6 61 c-5 52 -10 65 -41 96 l-36 36 -124 3 -125 4 -37 -35
c-37 -33 -37 -35 -45 -133 -4 -54 -8 -134 -9 -176 0 -48 -4 -78 -11 -78 -5 0
-30 5 -54 11 l-44 11 6 47 c11 91 -40 153 -146 177 -94 23 -165 14 -212 -27
l-24 -21 -7 42 c-10 56 -47 128 -78 150 -14 9 -41 23 -61 29 -27 9 -46 26 -71
64 -95 141 -246 249 -417 296 -41 11 -76 22 -78 24 -2 2 39 104 92 227 66 154
95 235 95 262 0 100 -97 177 -211 166 l-49 -5 0 32 c0 55 -55 150 -107 184
-39 26 -56 31 -107 31 -36 0 -75 -7 -95 -17z m152 -65 c70 -37 91 -122 72
-293 -18 -155 -51 -386 -65 -451 -11 -49 -13 -52 -48 -58 -72 -12 -78 -9 -95
37 -17 46 -57 217 -78 337 -8 41 -14 127 -14 190 0 140 16 180 94 232 30 20
102 24 134 6z m306 -256 c53 -39 50 -64 -24 -239 -92 -218 -137 -313 -147
-313 -5 0 -11 7 -14 15 -4 8 -10 15 -15 15 -5 0 -9 -7 -9 -15 0 -8 -5 -15 -11
-15 -6 0 -8 8 -5 18 3 9 8 37 11 62 3 25 9 65 15 90 5 25 15 87 21 139 8 63
15 88 20 75 4 -10 5 4 2 33 -8 78 4 138 30 152 30 15 95 6 126 -17z m-620 -46
c8 -9 8 -16 2 -20 -7 -4 -7 -15 -1 -29 5 -12 19 -71 30 -132 20 -111 30 -157
49 -230 14 -55 14 -69 -2 -59 -7 5 -5 2 5 -8 24 -22 23 -24 -15 -26 -31 -2
-35 1 -60 50 -68 138 -157 348 -157 371 0 33 30 68 71 83 46 17 64 17 78 0z
m616 -609 c97 -32 190 -85 262 -151 30 -27 52 -50 51 -52 -2 -1 -30 4 -63 11
-166 39 -634 60 -805 37 l-55 -7 45 -6 c28 -4 16 -5 -31 -3 -90 5 -171 -5
-162 -19 4 -6 -8 -7 -33 -3 -28 5 -35 4 -24 -3 11 -8 3 -10 -30 -7 -58 6 -97
-3 -78 -16 8 -6 0 -7 -25 -3 -27 4 -42 2 -54 -10 -12 -13 -18 -14 -24 -4 -6
10 -11 10 -23 -1 -9 -7 -19 -10 -23 -6 -4 4 27 39 68 79 109 107 247 171 409
191 19 2 143 3 275 1 227 -2 244 -4 320 -28z m-177 -164 c-42 -2 -114 -2 -160
0 -46 1 -11 3 77 3 88 0 125 -2 83 -3z m170 -10 c-10 -2 -26 -2 -35 0 -10 3
-2 5 17 5 19 0 27 -2 18 -5z m-630 -10 c-10 -2 -28 -2 -40 0 -13 2 -5 4 17 4
22 1 32 -1 23 -4z m710 0 c-10 -2 -26 -2 -35 0 -10 3 -2 5 17 5 19 0 27 -2 18
-5z m132 -13 c20 -6 21 -8 5 -8 -11 0 -33 4 -50 8 -27 7 -27 8 -5 8 14 0 36
-4 50 -8z m124 -30 c9 -9 -4 -6 -79 14 -11 3 0 3 25 0 25 -3 49 -9 54 -14z
m-312 -25 c172 -20 371 -64 480 -107 24 -9 78 -92 66 -103 -3 -4 -38 3 -98 18
-14 4 -7 -2 15 -13 22 -10 39 -21 38 -24 -9 -19 1 -35 26 -44 23 -8 28 -15 24
-31 -3 -12 -10 -24 -15 -27 -11 -7 -170 11 -278 33 -424 82 -849 81 -1235 -6
-49 -11 -128 -25 -175 -31 -47 -6 -97 -13 -112 -16 -22 -4 -29 0 -42 25 -9 16
-16 34 -16 39 0 17 283 96 392 109 31 4 44 9 36 14 -9 6 -8 10 6 15 14 5 15 9
4 15 -8 6 3 9 30 9 24 0 41 -4 38 -9 -3 -5 3 -11 13 -14 26 -6 151 4 151 13 0
3 -15 5 -32 4 -18 -2 -25 -1 -15 2 17 5 16 7 -5 19 -20 10 -46 9 -144 -5 -162
-23 -296 -53 -282 -61 6 -4 -6 -7 -28 -7 -21 0 -63 -7 -93 -16 -30 -9 -57 -14
-59 -11 -10 10 44 75 78 94 60 33 361 92 615 120 135 14 479 12 617 -4z m1440
-117 l21 -21 -6 -471 c-3 -281 -9 -482 -15 -497 -14 -35 -49 -45 -155 -41
-131 4 -121 -41 -112 527 9 573 -4 525 146 525 88 0 101 -2 121 -22z m-2172
-8 c0 -6 -6 -10 -14 -10 -8 0 -21 -3 -29 -6 -8 -3 -17 1 -19 8 -4 9 5 14 28
15 19 2 34 -2 34 -7z m-1217 -28 c9 -10 18 -40 21 -67 5 -53 22 -850 19 -899
-2 -49 -28 -63 -129 -71 -86 -6 -93 -5 -118 17 -24 21 -27 32 -32 108 -12 201
-21 876 -12 893 14 28 45 36 144 36 75 1 94 -2 107 -17z m1054 12 c-3 -3 -12
-4 -19 -1 -8 3 -5 6 6 6 11 1 17 -2 13 -5z m-27 -14 c10 -7 3 -8 -25 -5 -27 4
-34 3 -20 -3 16 -7 11 -10 -25 -15 -24 -3 -58 -4 -75 -1 -24 4 -26 3 -10 -5
19 -9 19 -10 -2 -10 -12 -1 -24 3 -27 8 -9 14 24 22 62 15 24 -5 33 -3 28 4
-11 18 69 28 94 12z m-208 -52 c-17 -8 -26 -8 -34 0 -9 9 -4 12 23 11 32 0 33
-1 11 -11z m-47 -8 c7 -11 -9 -11 -45 0 -24 8 -24 8 7 9 17 1 35 -3 38 -9z
m-50 -20 c-28 -12 -47 -12 -40 0 3 6 18 10 33 9 24 0 25 -1 7 -9z m2063 -41
c85 -18 119 -81 78 -144 -20 -31 -76 -58 -91 -44 -5 5 -18 9 -30 9 -11 0 -32
7 -47 14 -16 8 -28 11 -28 7 0 -4 12 -13 26 -20 15 -6 24 -14 21 -17 -9 -10
-56 27 -77 61 -35 56 -22 106 33 130 39 17 53 18 115 4z m-2349 -39 c18 -5 39
-17 47 -27 18 -24 17 -84 -1 -110 -20 -29 -87 -47 -145 -40 -37 5 -41 4 -20
-4 14 -6 48 -8 75 -6 40 5 45 4 25 -5 -14 -5 -45 -8 -68 -5 -56 6 -112 60
-112 107 0 41 37 77 86 85 22 4 44 8 49 10 18 6 29 5 64 -5z m1689 -45 c181
-17 305 -32 374 -45 28 -6 52 -10 54 -10 2 0 4 -6 4 -13 0 -24 63 -90 104
-108 76 -35 173 -21 232 32 19 18 24 18 65 5 24 -8 56 -17 72 -20 25 -6 27
-10 27 -56 0 -45 -2 -50 -22 -50 -13 0 -39 4 -58 10 -124 34 -606 104 -905
132 -189 17 -878 17 -1045 -1 -127 -13 -427 -54 -489 -67 l-34 -7 25 34 c14
19 29 44 33 57 3 12 14 26 23 31 45 24 466 75 747 91 196 11 603 3 793 -15z
m-1904 -182 c17 -14 47 -33 66 -41 19 -8 31 -16 25 -18 -22 -7 -203 -54 -209
-54 -3 0 -6 26 -6 59 l0 58 43 10 c23 6 44 11 46 12 2 0 17 -11 35 -26z m1419
0 c-68 -2 -178 -2 -245 0 -68 1 -13 3 122 3 135 0 190 -2 123 -3z m-475 -10
c-10 -2 -28 -2 -40 0 -13 2 -5 4 17 4 22 1 32 -1 23 -4z m961 -9 c7 -6 -109
-2 -179 6 -45 6 -29 7 55 3 66 -3 122 -7 124 -9z m-1056 -1 c-7 -2 -21 -2 -30
0 -10 3 -4 5 12 5 17 0 24 -2 18 -5z m815 -3 c183 -9 195 -11 213 -32 28 -34
20 -53 -23 -53 -45 0 -59 -12 -34 -31 29 -21 72 -17 96 9 20 21 22 43 8 87 -3
8 -3 12 -1 8 3 -5 9 -8 14 -8 6 0 8 4 5 8 -3 5 10 9 29 9 19 0 35 -2 35 -3 0
-2 -11 -15 -25 -30 -33 -35 -34 -87 -3 -108 41 -29 98 -15 98 22 0 11 -8 13
-35 8 -28 -6 -37 -3 -42 10 -3 9 -1 25 5 35 7 10 12 26 12 34 0 11 4 13 13 8
6 -4 21 -9 32 -10 11 -1 32 -5 47 -7 19 -4 28 -1 31 12 3 10 5 7 6 -9 2 -52
-62 -328 -115 -500 -36 -112 -38 -117 -80 -143 -59 -37 -65 -49 -20 -41 20 4
36 5 36 1 0 -23 -105 -212 -136 -245 -114 -122 -187 -191 -200 -191 -17 0 -19
-16 -1 -24 6 -3 0 -3 -15 0 -20 4 -30 2 -34 -9 -3 -9 -12 -13 -20 -10 -8 3
-14 0 -14 -6 0 -6 5 -11 12 -11 6 0 8 -3 5 -6 -4 -4 -13 -2 -20 5 -11 8 -22 7
-48 -6 -52 -26 -179 -30 -247 -7 -32 10 -60 23 -63 28 -4 5 -14 6 -24 3 -9 -4
-14 -3 -11 2 3 5 -11 21 -32 36 -49 36 -168 160 -197 206 -13 20 -31 43 -40
52 -9 10 -13 17 -9 17 4 0 -1 10 -12 23 -10 12 -25 32 -32 45 -11 20 -10 22
12 22 43 0 36 15 -15 33 -29 11 -49 24 -49 33 0 8 -4 13 -9 9 -5 -3 -13 0 -17
6 -5 8 -3 9 5 4 9 -5 12 -2 9 11 -2 11 -9 18 -15 17 -6 -1 -18 17 -26 40 -9
23 -31 85 -51 138 -50 138 -127 442 -114 454 15 15 246 36 653 59 120 6 273 5
453 -4z m-953 -7 c-80 -19 -95 -20 -102 -9 -3 6 -3 8 1 5 4 -4 19 -3 34 1 15
5 41 8 57 8 20 0 23 -2 10 -5z m1378 -10 c-7 -2 -19 -2 -25 0 -7 3 -2 5 12 5
14 0 19 -2 13 -5z m-1618 -13 c3 -5 1 -10 -4 -10 -6 0 -11 5 -11 10 0 6 2 10
4 10 3 0 8 -4 11 -10z m95 0 c0 -5 -5 -10 -11 -10 -5 0 -7 5 -4 10 3 6 8 10
11 10 2 0 4 -4 4 -10z m-213 -34 c0 -8 -8 -11 -20 -8 -14 3 -18 1 -13 -6 4 -7
13 -12 20 -12 7 0 24 -13 37 -29 24 -28 68 -57 81 -53 14 3 27 -59 18 -83 -12
-31 -41 -32 -87 -4 -19 12 -41 18 -50 14 -10 -3 -14 -3 -11 1 4 3 -12 23 -35
43 -29 25 -41 43 -39 57 3 21 52 73 82 86 8 4 15 7 16 7 0 1 1 -5 1 -13z
m1973 7 c-23 -10 -41 -31 -31 -38 5 -3 12 -1 16 5 3 6 22 17 42 25 40 17 55
19 33 5 -13 -8 -13 -10 1 -10 9 0 27 -8 39 -18 20 -16 21 -21 10 -43 -7 -13
-22 -32 -34 -42 -17 -15 -18 -20 -6 -27 8 -6 21 -7 29 -5 12 5 12 3 0 -11 -17
-20 -98 -58 -106 -50 -4 3 0 6 8 6 12 0 11 2 -1 11 -12 9 -12 10 4 5 23 -8 58
2 51 15 -3 5 1 6 9 3 9 -3 16 -2 16 4 0 20 -32 21 -70 1 -22 -12 -38 -25 -35
-29 3 -5 -8 -2 -25 6 -39 20 -54 48 -40 73 7 14 6 21 -3 25 -6 3 -1 3 12 0 19
-5 23 -3 18 9 -4 11 -2 14 7 11 19 -7 31 15 17 29 -9 9 -14 9 -19 1 -4 -6 -18
-17 -32 -24 -31 -16 -27 -11 30 34 25 20 52 35 60 35 13 0 13 -1 0 -6z m-1924
-35 c16 -18 20 -26 9 -18 -28 21 -45 38 -45 44 0 11 6 6 36 -26z m2054 22 c0
-13 -11 -13 -30 0 -12 8 -11 10 8 10 12 0 22 -4 22 -10z m-2187 -7 c-7 -2 -19
-2 -25 0 -7 3 -2 5 12 5 14 0 19 -2 13 -5z m2251 1 c9 -3 16 -10 16 -15 0 -5
-9 -4 -19 3 -15 9 -23 9 -34 0 -11 -9 -14 -9 -14 3 0 16 24 20 51 9z m-2314
-14 c0 -5 -9 -10 -20 -10 -21 0 -27 -14 -11 -24 5 -4 11 0 14 6 3 7 4 3 4 -9
-1 -28 -6 -28 -23 -5 -20 25 -17 40 9 45 12 2 23 5 25 6 1 0 2 -3 2 -9z m2302
-36 c-9 -16 -10 -14 -9 8 1 15 6 23 11 18 4 -4 4 -16 -2 -26z m-2013 -58 c0
-14 -2 -16 -6 -6 -3 8 -15 26 -27 39 l-21 24 28 -18 c16 -10 27 -26 26 -39z
m-276 7 c-3 -7 1 -13 8 -13 7 0 9 -3 6 -6 -7 -7 -37 14 -37 26 0 3 6 7 14 7 8
0 12 -6 9 -14z m1994 -15 c-3 -8 -6 -5 -6 6 -1 11 2 17 5 13 3 -3 4 -12 1 -19z
m-1943 -40 c-3 -5 0 -8 7 -6 8 1 24 -6 37 -17 12 -11 39 -25 60 -32 21 -6 28
-12 17 -12 -28 -1 -124 49 -136 71 -7 14 -6 16 6 12 8 -3 12 -10 9 -16z m249
-45 l14 -53 -31 1 c-25 1 -27 3 -8 6 19 4 23 9 18 26 -9 29 -17 95 -11 82 3
-5 11 -34 18 -62z m1688 24 c-6 -6 -11 -19 -11 -29 0 -10 -4 -18 -9 -18 -6 0
-6 12 0 32 5 18 9 34 9 36 0 2 5 0 11 -4 8 -4 8 -9 0 -17z m56 -3 c-3 -3 -12
-4 -19 -1 -8 3 -5 6 6 6 11 1 17 -2 13 -5z m-9 -23 c20 4 38 6 40 4 4 -4 -24
-12 -62 -17 -10 -2 -20 3 -22 10 -1 7 0 8 2 3 3 -5 20 -5 42 0z m-1808 -25 c0
-2 -7 -6 -15 -10 -8 -3 -15 -1 -15 4 0 6 7 10 15 10 8 0 15 -2 15 -4z m369
-522 c17 -38 6 -42 -14 -5 -8 17 -12 31 -7 31 5 0 14 -12 21 -26z m25 -60 c3
-8 2 -12 -4 -9 -6 3 -10 10 -10 16 0 14 7 11 14 -7z m46 -68 c0 -5 -9 -1 -20
9 -11 10 -20 22 -20 26 0 5 9 1 20 -8 11 -10 20 -22 20 -27z m945 -36 c-9 -16
-18 -30 -21 -30 -2 0 2 14 11 30 9 17 18 30 21 30 2 0 -2 -13 -11 -30z m-904
-15 c10 7 13 -8 2 -18 -9 -10 -33 13 -33 32 1 14 2 14 11 -2 6 -9 14 -15 20
-12z m59 -77 c0 7 5 12 11 12 8 0 8 -5 -1 -15 -11 -14 -7 -19 12 -16 4 0 5 -6
2 -13 -4 -10 0 -14 13 -12 10 2 12 1 6 -1 -15 -5 -17 -23 -3 -23 6 0 25 -15
43 -33 17 -18 55 -47 82 -65 28 -17 46 -32 42 -32 -15 0 -112 68 -152 107 -77
75 -154 171 -87 109 18 -17 32 -24 32 -18z m793 12 c-9 -16 -21 -30 -25 -30
-5 0 1 14 14 30 12 17 23 30 25 30 2 0 -4 -13 -14 -30z m88 -48 c-6 -11 -8
-29 -4 -39 7 -17 6 -17 -10 -1 -17 16 -17 19 -1 43 19 29 31 27 15 -3z m-128
-7 c-3 -9 -8 -14 -10 -11 -3 3 -2 9 2 15 9 16 15 13 8 -4z m-828 -36 c11 -17
-1 -21 -15 -4 -8 9 -8 15 -2 15 6 0 14 -5 17 -11z m772 -4 c0 -8 -4 -12 -9 -9
-5 3 -6 10 -3 15 9 13 12 11 12 -6z m139 -13 c0 -10 -8 -19 -17 -19 -16 -2
-17 0 -1 18 9 10 17 19 17 19 0 0 1 -8 1 -18z m173 -42 c50 -77 66 -143 56
-229 -4 -36 -8 -78 -9 -92 -1 -26 -3 -27 -80 -33 -46 -3 -84 -2 -91 4 -6 5
-12 26 -13 46 -2 38 -26 128 -48 181 -8 17 -14 35 -14 40 0 5 25 31 55 57 30
26 53 52 50 57 -3 5 0 6 8 3 8 -3 17 2 20 10 11 28 27 17 66 -44z m-1114 40
c3 -5 1 -10 -4 -10 -6 0 -11 5 -11 10 0 6 2 10 4 10 3 0 8 -4 11 -10z m778
-15 c-3 -9 -8 -14 -10 -11 -3 3 -2 9 2 15 9 16 15 13 8 -4z m-643 -178 c0 -9
-2 -9 -8 0 -9 15 -47 -141 -39 -161 5 -13 -67 -26 -148 -26 -32 0 -33 1 -45
66 -16 82 -8 161 21 222 42 89 39 89 134 -5 47 -46 85 -89 85 -96z m-46 144
c21 -22 25 -31 14 -37 -7 -4 -10 -3 -5 1 4 5 -5 21 -20 37 -15 15 -24 28 -22
28 3 0 18 -13 33 -29z m666 11 c0 -8 -53 -42 -66 -42 -5 0 7 11 26 25 40 28
40 28 40 17z m150 4 c0 -2 -8 -10 -17 -17 -16 -13 -17 -12 -4 4 13 16 21 21
21 13z m-583 -32 c-3 -3 -12 -4 -19 -1 -8 3 -5 6 6 6 11 1 17 -2 13 -5z m-257
-14 c0 -5 -2 -10 -4 -10 -3 0 -8 5 -11 10 -3 6 -1 10 4 10 6 0 11 -4 11 -10z
m80 -15 c11 -13 10 -14 -4 -9 -9 3 -16 10 -16 15 0 13 6 11 20 -6z m518 6 c11
-7 10 -9 -3 -14 -9 -4 -14 -3 -10 2 3 5 -1 12 -7 14 -7 3 -8 6 -3 6 6 0 16 -3
23 -8z m183 0 c-12 -8 -8 -13 17 -28 18 -10 32 -22 32 -26 0 -10 -18 0 -47 26
-22 20 -22 37 0 37 7 0 7 -4 -2 -9z m-676 -40 c-3 -6 -11 -11 -17 -11 -6 0 -6
6 2 15 14 17 26 13 15 -4z m320 -2 l60 -8 -68 4 c-38 1 -74 8 -80 15 -10 10
-8 11 8 5 11 -4 47 -11 80 -16z m98 4 c-7 -2 -19 -2 -25 0 -7 3 -2 5 12 5 14
0 19 -2 13 -5z m-405 -20 c-8 -10 -20 -27 -27 -38 l-11 -20 2 20 c2 11 12 28
23 37 26 22 32 23 13 1z m735 -34 c4 -16 3 -18 -9 -8 -16 13 -19 29 -5 29 5 0
11 -9 14 -21z m-776 -91 c-2 -13 -4 -3 -4 22 0 25 2 35 4 23 2 -13 2 -33 0
-45z m813 -8 c0 -13 -1 -13 -10 0 -5 8 -10 22 -10 30 0 13 1 13 10 0 5 -8 10
-22 10 -30z m-833 8 c-3 -8 -6 -5 -6 6 -1 11 2 17 5 13 3 -3 4 -12 1 -19z m10
-60 c-3 -7 -5 -2 -5 12 0 14 2 19 5 13 2 -7 2 -19 0 -25z m833 -28 c0 -13 -1
-13 -10 0 -5 8 -10 22 -10 30 0 13 1 13 10 0 5 -8 10 -22 10 -30z"/>
<path d="M2438 3693 c7 -3 16 -2 19 1 4 3 -2 6 -13 5 -11 0 -14 -3 -6 -6z"/>
<path d="M2380 3660 c-23 -7 -23 -8 -3 -9 12 -1 25 4 28 9 3 6 5 10 3 9 -2 -1
-14 -5 -28 -9z"/>
<path d="M2631 4114 c0 -11 3 -14 6 -6 3 7 2 16 -1 19 -3 4 -6 -2 -5 -13z"/>
<path d="M2612 3935 c0 -16 2 -22 5 -12 2 9 2 23 0 30 -3 6 -5 -1 -5 -18z"/>
<path d="M2603 3825 c0 -22 2 -30 4 -17 2 12 2 30 0 40 -3 9 -5 -1 -4 -23z"/>
<path d="M2592 3745 c0 -16 2 -22 5 -12 2 9 2 23 0 30 -3 6 -5 -1 -5 -18z"/>
<path d="M2151 4064 c0 -11 3 -14 6 -6 3 7 2 16 -1 19 -3 4 -6 -2 -5 -13z"/>
<path d="M2161 4004 c0 -11 3 -14 6 -6 3 7 2 16 -1 19 -3 4 -6 -2 -5 -13z"/>
<path d="M2171 3954 c0 -11 3 -14 6 -6 3 7 2 16 -1 19 -3 4 -6 -2 -5 -13z"/>
<path d="M2189 3838 c4 -28 6 -29 9 -9 2 13 0 27 -5 32 -6 6 -7 -3 -4 -23z"/>
<path d="M2211 3754 c0 -11 3 -14 6 -6 3 7 2 16 -1 19 -3 4 -6 -2 -5 -13z"/>
<path d="M2190 3682 c0 -15 18 -34 29 -31 7 3 3 11 -9 21 -11 10 -20 14 -20
10z"/>
<path d="M2203 3202 c-56 -4 -105 -11 -110 -16 -4 -5 20 -6 57 -2 49 5 61 4
50 -5 -12 -8 -10 -9 10 -4 43 12 123 24 160 24 28 0 31 -2 15 -9 -14 -6 -2 -9
40 -8 44 0 54 2 35 8 -24 8 -23 8 8 9 20 1 31 -3 27 -9 -3 -5 0 -10 9 -10 8 0
16 5 18 12 3 7 9 8 18 3 7 -5 39 -7 69 -6 31 1 69 -2 84 -7 17 -4 -75 -7 -213
-7 -132 0 -231 -3 -218 -7 13 -4 -6 -6 -44 -5 -36 1 -65 -1 -63 -4 5 -7 510
-3 567 5 42 6 43 6 14 -8 -29 -13 -28 -13 39 -21 52 -5 70 -4 76 7 5 7 5 14 1
15 -4 1 -25 5 -47 8 -34 6 -37 9 -20 16 14 7 8 7 -19 3 -23 -3 -42 -1 -45 5
-8 13 -375 22 -518 13z m420 -39 c-13 -2 -33 -2 -45 0 -13 2 -3 4 22 4 25 0
35 -2 23 -4z m217 -19 c0 -2 -14 -4 -31 -4 -16 0 -28 4 -25 9 5 8 56 3 56 -5z"/>
<path d="M2845 3169 c22 -4 54 -8 70 -7 26 0 25 1 -10 9 -22 4 -53 8 -70 7
-26 0 -25 -1 10 -9z"/>
<path d="M2920 3150 c-25 -4 -38 -8 -30 -9 9 -2 5 -6 -10 -11 -23 -7 -23 -8
-4 -9 12 -1 36 5 54 13 24 10 43 11 69 4 20 -5 59 -11 86 -14 l50 -4 -50 14
c-73 20 -114 24 -165 16z"/>
<path d="M1933 3123 c9 -2 25 -2 35 0 9 3 1 5 -18 5 -19 0 -27 -2 -17 -5z"/>
<path d="M2935 3120 c-18 -8 -18 -9 5 -8 14 0 36 4 50 8 24 8 24 8 -5 8 -16 0
-39 -3 -50 -8z"/>
<path d="M3005 3110 c-14 -6 -16 -9 -5 -11 8 -1 24 -3 35 -4 11 -2 55 -12 98
-23 76 -20 113 -20 101 0 -3 5 -12 4 -21 -3 -12 -11 -13 -8 -7 16 7 26 6 28
-20 21 -18 -4 -25 -3 -21 4 8 13 -5 13 -25 0 -12 -7 -8 -12 18 -21 44 -15 36
-21 -11 -8 -21 5 -35 14 -33 18 3 4 -7 8 -22 7 -15 0 -36 3 -47 6 -11 4 -29 3
-40 -2z"/>
<path d="M3242 3051 c-11 -7 -10 -10 3 -15 20 -7 38 1 30 15 -7 11 -16 11 -33
0z"/>
<path d="M2929 2560 c-29 -29 -31 -50 -6 -50 7 0 20 9 30 20 22 26 45 16 49
-23 4 -47 32 -43 36 5 2 27 -3 43 -17 57 -29 29 -57 26 -92 -9z"/>
<path d="M1977 2423 c-15 -14 -7 -55 12 -60 15 -4 18 -12 14 -47 -4 -35 -1
-47 21 -73 50 -59 152 -49 180 19 8 18 17 32 20 31 25 -11 37 -1 34 29 -3 31
-6 32 -118 70 -112 37 -150 45 -163 31z m154 -104 c44 -15 44 -16 29 -34 -25
-30 -80 -12 -80 27 0 21 6 22 51 7z"/>
<path d="M2751 2394 c-57 -19 -110 -39 -118 -45 -20 -17 -16 -47 10 -60 12 -6
34 -26 49 -44 70 -83 215 -25 193 76 -5 23 -2 33 15 47 19 16 21 22 11 40 -15
29 -35 27 -160 -14z m53 -79 c6 -16 -26 -55 -45 -55 -19 0 -49 20 -49 34 0 10
38 26 81 35 4 0 9 -6 13 -14z"/>
<path d="M2394 2316 c-46 -20 -76 -63 -72 -105 2 -28 7 -36 22 -36 10 0 23 8
27 18 5 9 13 25 17 35 5 9 21 23 35 30 38 19 92 -8 101 -49 7 -34 30 -47 52
-29 10 10 13 22 8 44 -10 45 -34 73 -77 91 -45 18 -72 19 -113 1z"/>
</g>
</svg>
