<?xml version="1.0" standalone="no"?>
<!DOCTYPE svg PUBLIC "-//W3C//DTD SVG 20010904//EN"
 "http://www.w3.org/TR/2001/REC-SVG-20010904/DTD/svg10.dtd">
<svg version="1.0" xmlns="http://www.w3.org/2000/svg"
 width="512" height="512" viewBox="0 0 634.000000 628.000000"
 preserveAspectRatio="xMidYMid meet">

<g transform="translate(0.000000,628.000000) scale(0.100000,-0.100000)"
fill="#000000" stroke="none">
<path d="M3029 5734 c-15 -18 -16 -621 -1 -636 6 -6 19 -7 31 -3 21 6 21 11
21 264 0 142 -3 285 -6 319 -7 63 -23 83 -45 56z"/>
<path d="M3648 5558 c-25 -29 -61 -75 -80 -103 -80 -112 -174 -343 -151 -366
21 -21 38 -2 57 57 35 112 130 287 214 392 31 39 37 72 14 72 -5 0 -30 -24
-54 -52z"/>
<path d="M2400 5544 c0 -9 22 -45 50 -80 78 -99 114 -161 155 -269 40 -104 51
-125 66 -125 32 0 -25 163 -97 280 -25 41 -69 105 -97 143 -50 65 -77 84 -77
51z"/>
<path d="M834 5298 c-33 -15 -44 -51 -44 -138 l0 -80 -101 0 c-55 0 -109 -4
-119 -10 -29 -15 -40 -65 -40 -175 l0 -102 -36 -6 c-45 -8 -63 -31 -64 -82 0
-52 22 -83 64 -90 31 -6 34 -10 40 -52 3 -25 6 -74 6 -109 0 -94 13 -104 139
-104 l98 0 5 -90 c6 -99 19 -130 69 -155 26 -14 68 -16 288 -13 227 3 260 5
284 21 16 10 32 28 36 40 8 20 21 274 21 405 l0 53 152 -3 153 -3 7 -40 c4
-22 17 -103 28 -180 45 -299 158 -808 283 -1278 l34 -127 -30 -48 c-46 -72
-445 -740 -529 -887 -121 -209 -255 -466 -269 -514 -22 -75 -60 -71 672 -71
l647 0 4 -338 c2 -185 3 -343 0 -349 -2 -7 -35 -36 -73 -64 -83 -61 -89 -85
-26 -94 23 -3 80 -5 127 -3 l85 3 3 428 2 427 310 0 310 0 0 -420 0 -420 140
0 140 0 0 24 c0 19 -15 32 -75 67 -55 31 -75 48 -75 63 -2 109 1 680 3 682 2
2 1258 16 1295 15 46 -3 -56 209 -274 569 -29 47 -103 171 -165 275 -62 105
-166 279 -231 388 l-118 199 30 90 c124 369 342 1298 367 1561 l6 67 123 0
122 0 4 -57 c3 -32 5 -125 7 -208 2 -166 5 -188 33 -227 31 -45 70 -50 346
-46 l254 3 24 28 c21 25 24 38 24 113 l0 84 108 0 c128 0 142 8 142 81 0 24 3
81 7 127 6 76 8 82 28 82 12 0 34 9 49 21 21 16 26 29 26 63 0 53 -21 83 -64
92 -41 7 -46 20 -46 135 0 121 -2 124 -137 126 l-108 2 -2 80 c-1 50 -8 91
-18 110 -30 59 -36 60 -315 61 -142 1 -266 -3 -280 -8 -65 -25 -79 -86 -80
-329 l0 -153 -110 0 -109 0 -16 30 c-18 36 -47 52 -90 52 -44 0 -70 -15 -84
-51 l-13 -29 -1136 2 c-827 2 -1145 6 -1165 15 -37 15 -90 14 -105 -1 -9 -9
-66 -15 -181 -18 l-169 -5 -4 200 c-3 189 -4 202 -26 238 -40 63 -61 67 -346
66 -151 0 -260 -4 -272 -11z m4293 -58 c130 0 145 -2 163 -20 19 -19 20 -33
20 -518 0 -434 -2 -500 -16 -520 -15 -22 -18 -22 -259 -22 -134 0 -255 4 -269
10 -14 5 -29 18 -35 28 -6 11 -12 192 -16 458 -3 241 -8 462 -10 490 -4 43 -1
54 18 71 34 31 44 33 156 28 57 -3 169 -5 248 -5z m-3745 -15 c34 -13 42 -57
47 -265 4 -113 4 -332 1 -487 -4 -254 -7 -284 -23 -300 -16 -16 -39 -18 -265
-15 -145 2 -258 7 -274 13 -20 8 -29 21 -34 44 -3 19 -4 249 -2 513 2 402 5
482 18 497 13 16 34 17 266 11 138 -3 258 -8 266 -11z m-614 -228 c7 -8 12
-112 14 -295 2 -228 0 -283 -10 -287 -19 -7 -157 -6 -176 1 -14 5 -16 40 -16
288 0 206 3 285 12 294 17 17 162 16 176 -1z m4780 -15 c9 -7 12 -73 10 -298
l-3 -289 -86 -3 c-62 -2 -89 1 -97 11 -15 17 -21 575 -7 581 18 8 170 6 183
-2z m-1170 -158 c27 -19 28 -49 3 -107 -22 -52 -34 -61 -64 -53 -28 7 -45 34
-53 83 -11 72 56 118 114 77z m-2438 -63 c18 -56 1 -94 -55 -121 -48 -23 -72
-18 -81 16 -17 68 31 144 91 144 28 0 33 -4 45 -39z m2290 -24 c0 -13 -6 -25
-12 -26 -45 -8 -445 -17 -793 -19 -225 -1 -643 -5 -927 -8 l-518 -7 0 36 0 37
733 2 c402 2 909 4 1125 6 l392 2 0 -23z m430 -7 l0 -30 -120 0 c-66 0 -120 2
-120 4 0 3 4 16 10 30 9 26 11 26 120 26 l110 0 0 -30z m-2894 -18 l1 -32
-149 0 -149 0 3 28 3 27 130 6 c172 7 160 9 161 -29z m-1211 -8 c0 -26 -4 -29
-37 -32 -28 -2 -39 1 -47 16 -12 23 0 38 39 45 39 7 45 3 45 -29z m5099 20
c19 -7 21 -43 4 -49 -7 -2 -26 -6 -42 -7 -27 -3 -30 0 -31 30 -1 28 2 32 26
32 15 0 34 -3 43 -6z m-1382 -89 c32 -27 76 -33 97 -12 10 10 11 1 6 -48 -31
-273 -179 -904 -342 -1459 -46 -158 -47 -159 -65 -136 -24 30 -23 46 11 159
36 116 207 813 250 1016 19 88 41 261 41 317 0 49 -16 126 -35 171 -10 24 2
21 37 -8z m-62 -40 c24 -49 18 -234 -13 -385 -48 -232 -87 -404 -157 -685 -82
-328 -118 -451 -130 -439 -5 5 -98 158 -208 339 -109 182 -246 409 -304 505
-59 96 -155 256 -215 354 -60 99 -113 181 -119 183 -6 2 -75 -101 -154 -229
-78 -128 -179 -291 -223 -363 -44 -71 -105 -170 -135 -220 -30 -49 -65 -106
-77 -125 -12 -19 -71 -115 -131 -212 -71 -115 -112 -172 -116 -163 -13 22 -63
249 -142 640 -41 204 -84 415 -96 470 -24 113 -28 240 -8 300 l13 40 320 5
c176 3 601 7 944 8 344 1 627 5 630 7 3 3 73 4 155 3 l151 -3 15 -30z m-2255
8 c-36 -88 -33 -209 10 -402 19 -86 64 -304 100 -486 36 -181 82 -396 101
-477 34 -142 35 -148 19 -179 -13 -24 -19 -29 -25 -18 -33 60 -248 989 -299
1289 -44 261 -45 243 8 252 25 4 52 14 60 23 21 20 35 19 26 -2z m1286 -503
c932 -1543 1521 -2541 1507 -2555 -6 -7 -3388 -18 -3388 -11 0 31 190 372 455
816 178 298 578 970 769 1290 27 47 116 191 196 320 80 129 174 281 209 338
35 57 67 100 72 95 4 -4 85 -136 180 -293z m-530 -2982 c1 -194 2 -375 3 -402
l1 -49 -42 1 c-91 1 -91 1 -68 14 11 6 30 20 43 32 l24 21 -8 356 c-4 196 -4
361 0 368 4 6 16 11 27 11 18 0 19 -11 20 -352z m753 -12 l-7 -364 43 -28 44
-29 -68 -3 c-38 -2 -69 -2 -70 0 -1 2 0 180 2 396 l4 392 30 0 30 0 -8 -364z"/>
<path d="M2507 2362 c-27 -29 -22 -93 9 -115 72 -53 144 47 78 108 -32 30 -65
32 -87 7z"/>
<path d="M3566 2349 c-40 -31 -37 -83 7 -109 17 -11 39 -20 48 -20 48 0 69
105 27 134 -30 21 -50 20 -82 -5z"/>
<path d="M2886 2311 c-14 -23 4 -77 37 -109 69 -67 166 -81 255 -36 56 28 102
83 102 121 0 28 -26 31 -35 4 -9 -30 -70 -79 -112 -90 -59 -17 -95 -13 -150
14 -39 20 -56 36 -71 67 -12 27 -22 37 -26 29z"/>
</g>
</svg>
