<?xml version="1.0" standalone="no"?>
<!DOCTYPE svg PUBLIC "-//W3C//DTD SVG 20010904//EN"
 "http://www.w3.org/TR/2001/REC-SVG-20010904/DTD/svg10.dtd">
<svg version="1.0" xmlns="http://www.w3.org/2000/svg"
 width="512" height="512" viewBox="0 0 578.000000 626.000000"
 preserveAspectRatio="xMidYMid meet">

<g transform="translate(0.000000,626.000000) scale(0.100000,-0.100000)"
fill="#000000" stroke="none">
<path d="M2994 5586 c-17 -8 -43 -29 -57 -47 -28 -39 -72 -161 -82 -232 -5
-38 -10 -47 -23 -43 -142 40 -333 -13 -456 -125 -30 -27 -85 -95 -121 -149
-99 -148 -113 -154 -325 -135 -76 7 -92 5 -156 -17 -126 -44 -229 -128 -277
-224 -11 -23 -17 -49 -14 -58 6 -14 12 -13 54 5 61 27 174 35 255 19 48 -9
303 -94 315 -104 4 -4 -116 -398 -143 -471 -40 -107 -111 -243 -224 -430 -57
-93 -135 -233 -174 -310 -39 -77 -99 -180 -132 -230 -33 -49 -75 -117 -94
-150 -38 -68 -128 -212 -206 -330 -64 -97 -239 -310 -255 -310 -6 0 -16 16
-23 35 -12 37 -45 60 -86 60 -35 0 -88 -35 -103 -67 -6 -16 -27 -42 -44 -59
-40 -38 -43 -77 -9 -127 l24 -35 -30 -6 c-17 -3 -48 -6 -69 -6 -32 0 -39 -4
-39 -20 0 -14 9 -21 38 -25 58 -10 59 -11 19 -28 -39 -17 -47 -31 -21 -41 74
-28 245 64 332 179 26 35 72 90 102 122 111 120 137 150 201 228 86 105 134
174 170 238 33 60 34 55 14 -79 -8 -54 -15 -160 -15 -234 0 -176 17 -277 77
-471 3 -12 -26 -1 -99 36 -117 60 -200 85 -226 69 -64 -40 30 -211 206 -374
203 -188 473 -339 806 -451 l128 -43 -59 -12 c-106 -21 -279 -123 -425 -248
-74 -64 -96 -95 -83 -116 13 -20 52 -9 189 57 258 121 378 156 606 174 296 23
943 11 1101 -22 128 -26 256 -74 439 -164 119 -58 162 -66 168 -31 8 38 -194
200 -362 291 -47 26 -112 52 -146 59 l-62 12 129 43 c465 155 861 426 996 681
87 166 24 191 -199 81 -66 -33 -120 -58 -122 -56 -2 2 3 14 12 27 26 39 94
258 112 358 17 98 24 375 10 418 -13 39 8 23 39 -30 39 -66 145 -209 204 -273
177 -194 242 -270 283 -328 38 -54 206 -147 265 -147 42 0 60 14 44 34 -8 9
-22 16 -32 16 -10 0 -21 5 -24 10 -3 6 4 10 17 10 42 0 69 12 66 29 -2 11 -20
18 -62 23 -32 4 -61 9 -63 12 -2 2 5 19 16 37 31 50 27 86 -12 123 -17 17 -38
43 -44 59 -16 35 -69 67 -111 67 -38 0 -82 -37 -82 -69 0 -32 -21 -36 -44 -9
-12 14 -53 63 -92 109 -92 110 -196 264 -329 489 -38 63 -91 149 -118 189 -27
41 -57 94 -67 117 -10 23 -62 120 -116 215 -158 281 -183 328 -234 444 -65
146 -127 329 -190 559 -98 359 -156 481 -303 633 -134 139 -266 202 -441 211
l-99 5 6 58 c6 68 43 143 104 207 23 25 39 50 37 56 -14 36 -110 55 -160 32z
m-547 -477 c-35 -35 -79 -84 -99 -109 -48 -59 -61 -45 -15 17 51 69 162 171
174 159 2 -1 -25 -32 -60 -67z m814 22 c165 -63 311 -212 403 -413 39 -84 73
-187 145 -446 106 -375 147 -468 414 -943 79 -142 151 -292 182 -379 126 -357
82 -783 -115 -1105 -205 -334 -562 -555 -1028 -634 -468 -79 -894 -39 -1207
114 -315 155 -524 408 -612 742 -35 134 -43 378 -19 548 42 290 135 517 376
920 181 303 246 455 345 813 28 101 30 103 54 98 14 -3 65 -9 112 -12 216 -16
407 80 533 269 87 132 176 349 176 432 l0 28 93 -5 c59 -4 112 -13 148 -27z
m-971 -209 c0 -16 -55 -89 -86 -115 -35 -30 -74 -42 -103 -32 -26 8 -18 25 13
25 33 0 110 53 135 94 21 34 41 47 41 28z m-325 -113 c82 -21 71 -34 -28 -34
-71 -1 -113 -7 -185 -29 -51 -15 -95 -26 -98 -23 -8 8 112 66 167 81 67 18 89
19 144 5z m815 -114 c-45 -59 -60 -73 -60 -56 0 12 93 121 99 115 2 -2 -15
-28 -39 -59z m-954 -25 c86 -22 244 -81 244 -91 0 -4 -11 -10 -25 -13 -17 -4
-57 4 -113 23 -108 37 -220 55 -290 47 -61 -7 -62 3 -4 34 48 25 90 25 188 0z
m834 -80 c-22 -31 -71 -61 -143 -86 l-39 -14 7 28 c4 15 7 27 8 28 1 1 25 9
52 18 28 9 68 27 90 40 22 12 42 21 44 20 2 -2 -7 -17 -19 -34z m-427 -40 c40
-5 107 -10 150 -10 l78 0 -18 -30 c-17 -29 -19 -30 -99 -30 -58 0 -107 7 -170
26 -49 14 -91 28 -94 30 -11 12 36 35 58 29 13 -3 56 -10 95 -15z m-1428
-2294 c14 -22 14 -27 -1 -65 -22 -55 -68 -93 -108 -89 -24 2 -32 8 -34 27 -14
96 99 195 143 127z m4374 3 c28 -16 40 -31 53 -71 21 -62 11 -88 -31 -88 -38
0 -75 31 -101 85 -21 43 -21 47 -6 70 20 30 37 31 85 4z m-3609 -629 c18 -22
29 -40 25 -40 -14 0 -205 140 -205 150 0 19 151 -74 180 -110z m2850 88 c-34
-29 -183 -130 -265 -178 -39 -22 -38 -21 20 39 46 48 84 75 165 116 58 30 107
54 110 54 3 0 -11 -14 -30 -31z"/>
<path d="M2700 4327 c-6 -7 -20 -27 -33 -46 -41 -64 -100 -65 -167 -5 -66 60
-92 24 -36 -48 49 -63 164 -74 227 -20 35 29 62 83 53 106 -8 20 -32 28 -44
13z"/>
<path d="M3108 4333 c-25 -6 -23 -58 3 -94 26 -37 88 -69 131 -69 69 1 158 65
158 114 0 29 -31 31 -54 5 -31 -36 -67 -59 -94 -59 -36 0 -80 30 -97 67 -18
37 -23 41 -47 36z"/>
<path d="M3034 4015 c-3 -14 -22 -38 -40 -55 -27 -24 -44 -30 -79 -30 -62 0
-92 14 -116 55 -26 43 -44 46 -35 5 13 -70 64 -102 157 -102 64 0 122 36 139
87 12 37 8 65 -9 65 -6 0 -13 -11 -17 -25z"/>
<path d="M2801 3180 c-138 -29 -257 -84 -363 -168 -88 -70 -157 -157 -209
-267 -118 -244 -83 -552 86 -767 94 -120 253 -225 411 -270 105 -30 333 -33
434 -5 254 69 451 246 541 485 32 85 33 91 33 242 0 159 -6 192 -56 306 -18
42 -81 144 -88 144 -4 0 -12 -10 -19 -23 -11 -20 -8 -30 23 -81 19 -32 47 -95
62 -139 23 -69 26 -90 21 -152 -22 -253 -209 -473 -481 -565 -133 -45 -257
-57 -386 -38 -224 33 -407 139 -525 303 -54 76 -68 125 -67 250 0 108 16 186
57 280 139 313 528 490 871 395 59 -16 62 -16 73 2 19 30 13 35 -56 53 -78 21
-293 29 -362 15z"/>
<path d="M2574 2656 c-3 -9 1 -28 10 -42 40 -60 154 -59 187 2 17 32 -2 56
-29 36 -61 -44 -90 -44 -139 1 -20 18 -23 18 -29 3z"/>
<path d="M3075 2650 c-10 -16 22 -59 51 -70 69 -27 153 8 154 63 0 24 -17 21
-52 -8 -33 -28 -58 -26 -94 6 -22 21 -49 25 -59 9z"/>
<path d="M2845 2470 c-9 -28 15 -72 48 -88 21 -10 35 -11 61 -2 42 13 53 26
58 64 3 33 -17 47 -25 17 -2 -10 -16 -27 -31 -36 -24 -16 -28 -16 -51 -1 -14
10 -30 28 -35 42 -11 29 -17 30 -25 4z"/>
</g>
</svg>
